Coordinates
version=1
nRows=9
nColumns=36
inDegrees=yes

Units are S.I. units (second, meters, Newtons, ...)
If the header above contains a line with 'inDegrees', this indicates whether rotational values are in degrees (yes) or radians (no).

endheader
time	pelvis_tilt	pelvis_list	pelvis_rotation	pelvis_tx	pelvis_ty	pelvis_tz	hip_flexion_r	hip_adduction_r	hip_rotation_r	knee_angle_r	knee_angle_r_beta	ankle_angle_r	subtalar_angle_r	mtp_angle_r	hip_flexion_l	hip_adduction_l	hip_rotation_l	knee_angle_l	knee_angle_l_beta	ankle_angle_l	subtalar_angle_l	mtp_angle_l	lumbar_extension	lumbar_bending	lumbar_rotation	arm_flex_r	arm_add_r	arm_rot_r	elbow_flex_r	pro_sup_r	arm_flex_l	arm_add_l	arm_rot_l	elbow_flex_l	pro_sup_l
      0.30000000	     -5.23845884	     -1.95513723	     -0.13900530	      0.27332221	      0.89175712	     -0.16122966	      5.81803296	      6.24499516	      2.22339305	     12.96656687	      0.22630928	     13.32497623	     -3.62940067	     -7.46765964	     26.23243740	     -2.80246228	     -2.04337194	     40.43286410	      0.70568660	      5.79307929	     -7.13471996	     -7.46765964	      1.38129884	      2.98435458	      5.24408691	      5.27207401	    -11.97730973	    -23.54732712	     18.09303394	    100.23949928	      0.63496887	     -9.88735418	      0.47812709	     16.69471653	    102.91305411
      0.31000000	     -4.98193639	     -2.07093686	     -0.64460120	      0.28469379	      0.89225289	     -0.16133933	      4.52061288	      6.30906153	      2.28152587	     12.50212582	      0.21820326	     14.26921334	     -2.99022252	     -7.47005929	     26.98870922	     -2.97242361	     -2.35691655	     38.52308678	      0.67235470	      5.95905226	     -6.51069532	     -7.47005929	      0.81217059	      3.18275810	      6.34726583	      5.41704627	    -12.66264334	    -20.88982498	     20.30964952	     99.99038645	      0.49434335	     -9.85631290	     -0.22193392	     15.63666511	    102.86772293
      0.32000000	     -4.97019974	     -2.23738432	     -1.16581826	      0.29636630	      0.89197622	     -0.16116860	      3.47611067	      6.44219603	      2.56457424	     12.04881588	      0.21029151	     14.99398035	     -2.72190837	     -7.47042586	     27.93431758	     -3.23182026	     -2.71563679	     36.53435178	      0.63764473	      5.83119319	     -5.98067788	     -7.47042586	      0.73823635	      3.48110486	      6.99430743	      6.39811531	    -13.00410749	    -20.32180646	     20.98156606	    100.03147461	     -0.12494553	     -9.98866968	     -0.32988366	     14.98179020	    103.06610868
      0.33000000	     -4.86242080	     -2.44063100	     -1.63735133	      0.30815733	      0.89131835	     -0.16085104	      2.24104524	      6.58645182	      2.71967951	     11.47763677	      0.20032255	     15.68738090	     -2.13928874	     -7.47279137	     28.69811144	     -3.50899066	     -3.00414569	     34.38754184	      0.60017583	      5.63369338	     -5.39473857	     -7.47279137	      0.39311842	      3.77895964	      7.80828396	      6.77999280	    -13.78349795	    -17.42552686	     22.74240559	     99.53941401	     -0.49279332	    -10.00825474	     -0.99630464	     14.19366326	    103.13158828
      0.34000000	     -4.84124161	     -2.65720287	     -2.10186462	      0.31999795	      0.89001752	     -0.16037425	      1.04979805	      6.75339785	      2.97486932	     10.88983591	      0.19006349	     16.20665030	     -1.68304520	     -7.47384620	     29.49691726	     -3.81638826	     -3.33183701	     32.09700164	      0.56019836	      5.46112098	     -4.69803473	     -7.47384620	      0.23277589	      4.15341046	      8.34397021	      7.63758898	    -14.26040796	    -16.19095984	     23.67759185	     99.30417708	     -1.07382704	    -10.11158866	     -1.34579120	     13.49230758	    103.37096473
      0.35000000	     -4.94880736	     -2.82931942	     -2.60219018	      0.33190745	      0.88815567	     -0.15974816	     -0.04423538	      6.87241175	      3.34671477	     10.32418730	      0.18019106	     16.66442982	     -1.18204162	     -7.48195861	     30.31020631	     -4.05191531	     -3.49595955	     29.55825736	      0.51588891	      5.35085328	     -4.11952789	     -7.48195861	      0.19448958	      4.40155078	      8.57821706	      8.75661006	    -15.02715703	    -11.66331322	     24.28685955	     95.89208833	     -1.98394061	    -10.17020499	     -3.05007703	     13.08466241	    103.77348735
      0.36000000	     -5.16945157	     -3.03507688	     -3.07427583	      0.34375863	      0.88584061	     -0.15921495	     -1.05007132	      7.02753380	      3.74050864	      9.76939718	      0.17050815	     16.92212150	     -0.78272616	     -7.48187367	     31.16932938	     -4.31779673	     -3.62335125	     26.84837155	      0.46859248	      5.22796331	     -3.51101606	     -7.48187367	      0.34091315	      4.75127068	      9.16109199	      9.62493174	    -15.30248290	    -11.57023726	     24.85900889	     96.16962267	     -2.51232091	    -10.31929805	     -3.14895665	     12.27255659	    104.20785910
      0.37000000	     -5.37872122	     -3.18764723	     -3.55434629	      0.35560543	      0.88345765	     -0.15867071	     -2.07761238	      7.11690007	      4.11874029	      9.27163318	      0.16182053	     17.24643094	     -0.19539881	     -7.48191972	     31.89480419	     -4.55263350	     -3.75376510	     23.97410460	      0.41842706	      5.32503620	     -2.57645668	     -7.48191972	      0.37520845	      4.96451556	      9.73188766	     10.25958736	    -15.55768353	    -11.16880671	     26.08811727	     96.41224017	     -3.03706493	    -10.50333456	     -3.41200605	     11.50088123	    104.52579657
      0.38000000	     -5.65051979	     -3.44627380	     -3.94537149	      0.36751609	      0.88100440	     -0.15860285	     -3.04934177	      7.30038278	      4.43219678	      8.79286260	      0.15346440	     17.39286161	      0.26929818	     -7.48186143	     32.63910499	     -4.80437929	     -3.53506222	     21.09841014	      0.36823672	      5.57023774	     -1.80085707	     -7.48186143	      0.51243021	      5.37950009	     10.29711593	     10.89418636	    -15.88926313	    -10.86314739	     26.92554726	     96.66196722	     -3.54971260	    -10.64600922	     -3.65371602	     10.94124783	    104.74611956
